<?xml version="1.0" encoding="utf-8"?>
<!-- Generator: Adobe Illustrator 26.0.2, SVG Export Plug-In . SVG Version: 6.00 Build 0)  -->
<svg version="1.1" id="Layer_1" xmlns="http://www.w3.org/2000/svg" xmlns:xlink="http://www.w3.org/1999/xlink" x="0px" y="0px"
	 viewBox="0 0 114.9 16" style="enable-background:new 0 0 114.9 16;" xml:space="preserve">
<style type="text/css">
	.st0{fill:#1D1D1B;}
</style>
<g>
	<path class="st0" d="M12,7.8c0,2.3-0.6,4.1-1.8,5.3c-1.2,1.2-3,1.8-5.3,1.8H0.6V0.8h4.3c2.3,0,4.1,0.6,5.3,1.8S12,5.5,12,7.8z
		 M9.7,7.8c0-0.9-0.1-1.7-0.3-2.3S8.8,4.4,8.4,4S7.5,3.3,6.9,3.1s-1.3-0.3-2-0.3h-2v10.1h2c0.8,0,1.5-0.1,2-0.3
		c0.6-0.2,1.1-0.5,1.5-0.9s0.7-0.9,0.9-1.6C9.6,9.5,9.7,8.7,9.7,7.8z"/>
	<path class="st0" d="M16.6,15h-2.2V0.8h2.2v5.4c0.1-0.2,0.3-0.3,0.5-0.5s0.5-0.4,0.8-0.5c0.3-0.2,0.6-0.3,1-0.4s0.7-0.2,1.2-0.2
		c1,0,1.8,0.4,2.4,1.1s0.9,1.7,0.9,3V15h-2.2V8.7c0-0.7-0.1-1.2-0.4-1.6c-0.3-0.4-0.7-0.6-1.3-0.6c-0.6,0-1.1,0.1-1.6,0.4
		s-0.9,0.6-1.2,1L16.6,15L16.6,15z"/>
	<path class="st0" d="M28.5,6.4c0.1-0.2,0.3-0.4,0.4-0.7c0.2-0.2,0.3-0.4,0.6-0.6s0.5-0.3,0.7-0.4c0.3-0.1,0.6-0.2,0.9-0.2
		c0.4,0,0.7,0.1,0.9,0.2c0.2,0.1,0.4,0.2,0.5,0.3L32,7.1c-0.3-0.3-0.7-0.4-1.3-0.4c-0.5,0-0.9,0.1-1.3,0.3c-0.4,0.2-0.7,0.6-0.9,1
		v6.9h-2.2V4.8h1.9L28.5,6.4z"/>
	<path class="st0" d="M40.9,4.8h2.2v10.1h-1.9l-0.3-1.5c-0.1,0.2-0.3,0.4-0.5,0.6s-0.4,0.4-0.7,0.6s-0.6,0.3-0.9,0.4
		c-0.3,0.1-0.7,0.2-1.1,0.2c-1.1,0-1.9-0.3-2.5-0.9c-0.6-0.6-0.9-1.6-0.9-3V4.8h2.2v6.4c0,0.7,0.2,1.2,0.5,1.6
		c0.3,0.3,0.7,0.5,1.3,0.5s1.1-0.2,1.6-0.5c0.4-0.3,0.8-0.7,1.2-1.1V4.8H40.9z"/>
	<path class="st0" d="M48.5,15L44.8,4.8H47l1.6,4.7l0.9,3.5l0,0l0.9-3.5l1.8-4.7h2.2l-3.6,10.1h-2.3V15z"/>
	<path class="st0" d="M58.5,15h-2.3V0.8h2.3V15z M61.4,7.4l6.1,7.5h-2.7l-5.5-6.8V6.8l5.4-6h2.6L61.4,7.4z"/>
	<path class="st0" d="M75.2,4.8h2.2v10.1h-1.9l-0.3-1.5c-0.1,0.2-0.3,0.4-0.5,0.6s-0.4,0.4-0.7,0.6c-0.3,0.2-0.6,0.3-0.9,0.4
		c-0.3,0.1-0.7,0.2-1.1,0.2c-1,0-1.9-0.3-2.5-0.9c-0.6-0.6-0.9-1.6-0.9-3V4.8h2.2v6.4c0,0.7,0.2,1.2,0.5,1.6
		c0.3,0.3,0.7,0.5,1.3,0.5c0.6,0,1.1-0.2,1.6-0.5c0.5-0.3,0.8-0.7,1.2-1.1V4.8H75.2z"/>
	<path class="st0" d="M82.5,15h-2.2V4.8h1.9l0.3,1.4C82.6,6,82.8,5.8,83,5.6s0.4-0.4,0.7-0.5s0.6-0.3,0.9-0.4s0.7-0.2,1.1-0.2
		c0.7,0,1.2,0.2,1.7,0.5s0.7,0.8,0.9,1.4c0.1-0.2,0.3-0.4,0.6-0.6c0.2-0.2,0.5-0.4,0.8-0.6s0.6-0.3,0.9-0.4s0.7-0.2,1-0.2
		c1,0,1.7,0.3,2.2,1s0.7,1.6,0.7,2.7V15h-2.2V8.4c0-0.6-0.1-1-0.3-1.4c-0.2-0.3-0.5-0.5-1-0.5s-1,0.1-1.4,0.4s-0.8,0.6-1,1.1v6.9
		h-2.2V8.4c0-0.6-0.1-1-0.3-1.4c-0.2-0.3-0.5-0.5-1-0.5s-1,0.1-1.5,0.4c-0.4,0.3-0.8,0.6-1,1L82.5,15L82.5,15z"/>
	<path class="st0" d="M96.7,12.1c0-1.2,0.4-2.1,1.2-2.7c0.8-0.6,1.9-0.8,3.3-0.8h1.8V8.3c0-0.7-0.2-1.2-0.5-1.5
		c-0.4-0.3-0.9-0.5-1.5-0.5s-1.1,0.1-1.6,0.2s-1,0.3-1.4,0.6l-0.5-1.6c0.4-0.3,0.9-0.5,1.6-0.7c0.7-0.2,1.4-0.3,2.2-0.3
		c1.4,0,2.4,0.3,3,1s1,1.6,1,2.8v6.6h-1.8l-0.3-1.5c-0.1,0.2-0.3,0.4-0.5,0.7c-0.2,0.2-0.4,0.4-0.6,0.6c-0.2,0.2-0.5,0.3-0.9,0.4
		c-0.4,0.1-0.7,0.1-1.2,0.1c-0.4,0-0.8-0.1-1.2-0.2c-0.4-0.1-0.7-0.3-1-0.6c-0.3-0.3-0.5-0.6-0.7-1C96.7,13,96.7,12.6,96.7,12.1z
		 M103,10.1h-1.8c-0.8,0-1.4,0.2-1.8,0.5c-0.4,0.3-0.6,0.8-0.6,1.4c0,0.4,0.1,0.8,0.4,1.1c0.3,0.3,0.6,0.4,1,0.4s0.8-0.1,1.1-0.2
		c0.3-0.2,0.6-0.4,0.9-0.6s0.4-0.5,0.6-0.9s0.2-0.7,0.2-1C103,10.8,103,10.1,103,10.1z"/>
	<path class="st0" d="M110.2,6.4c0.1-0.2,0.3-0.4,0.4-0.7c0.2-0.2,0.3-0.4,0.6-0.6s0.5-0.3,0.7-0.4c0.3-0.1,0.6-0.2,0.9-0.2
		c0.4,0,0.7,0.1,0.9,0.2c0.2,0.1,0.4,0.2,0.5,0.3l-0.5,2.1c-0.3-0.3-0.7-0.4-1.3-0.4c-0.5,0-0.9,0.1-1.3,0.3c-0.4,0.2-0.7,0.6-0.9,1
		v6.9H108V4.8h1.9L110.2,6.4z"/>
</g>
</svg>
